<?xml version="1.0" standalone="no"?>
<!DOCTYPE svg PUBLIC "-//W3C//DTD SVG 20010904//EN"
 "http://www.w3.org/TR/2001/REC-SVG-20010904/DTD/svg10.dtd">
<svg version="1.0" xmlns="http://www.w3.org/2000/svg"
 width="800.000000pt" height="800.000000pt" viewBox="0 0 800.000000 800.000000"
 preserveAspectRatio="xMidYMid meet">
<metadata>
Created by potrace 1.14, written by Peter Selinger 2001-2017
</metadata>
<g transform="translate(0.000000,800.000000) scale(0.100000,-0.100000)"
fill="#000000" stroke="none">
<path d="M2711 5301 c-8 -5 -21 -7 -29 -3 -10 3 -13 1 -8 -6 5 -8 2 -10 -8 -6
-9 4 -16 1 -16 -6 0 -7 -7 -10 -15 -6 -10 3 -15 -1 -15 -12 0 -15 -2 -15 -10
-2 -9 14 -14 7 -11 -13 1 -4 -7 -3 -17 2 -14 7 -19 6 -19 -4 0 -8 5 -11 11 -8
8 4 8 2 0 -6 -6 -7 -21 -13 -33 -14 -11 -1 -21 -5 -21 -9 0 -4 -8 -4 -17 -1
-12 5 -15 2 -10 -10 4 -12 2 -14 -10 -10 -12 5 -14 3 -8 -8 4 -8 5 -11 0 -7
-4 4 -22 -3 -39 -15 -34 -24 -35 -24 -48 -5 -6 9 -7 5 -2 -12 3 -14 3 -22 -1
-18 -5 4 -15 2 -23 -5 -13 -10 -14 -9 -8 2 9 14 -44 -16 -55 -32 -9 -12 -61
-38 -54 -27 3 6 -1 7 -9 4 -9 -3 -14 -11 -13 -17 1 -7 -4 -11 -10 -9 -7 1 -13
-2 -13 -8 0 -5 -6 -7 -14 -4 -8 3 -20 -3 -27 -14 -8 -10 -24 -18 -36 -17 -12
1 -20 -2 -17 -7 3 -4 0 -8 -6 -8 -6 0 -8 -5 -4 -11 4 -7 -2 -7 -17 1 -13 7
-21 9 -17 5 4 -4 0 -14 -10 -22 -9 -8 -11 -11 -3 -7 10 5 12 3 7 -5 -6 -9 -11
-9 -24 1 -13 11 -14 11 -7 -1 6 -11 4 -13 -8 -8 -12 4 -17 1 -17 -11 0 -13 -2
-14 -9 -3 -7 11 -11 10 -19 -4 -6 -11 -16 -16 -26 -12 -9 3 -15 3 -14 -1 4
-12 -34 -50 -46 -46 -6 2 -12 -7 -12 -21 -1 -15 2 -22 9 -18 6 3 7 1 3 -5 -12
-20 -15 -52 -5 -52 6 0 7 -5 4 -10 -4 -6 -12 -7 -18 -4 -9 5 -9 4 0 -6 6 -7 9
-19 6 -28 -5 -11 -3 -13 8 -7 12 7 12 6 1 -7 -10 -13 -10 -17 0 -21 11 -4 11
-6 0 -6 -10 -1 -10 -6 -1 -22 8 -16 8 -20 -1 -14 -14 9 -10 -27 5 -37 6 -5 6
-8 -1 -8 -11 0 -11 -46 0 -58 3 -3 -2 -14 -11 -24 -10 -11 -13 -19 -8 -18 22
5 27 -1 14 -17 -16 -19 -16 -23 3 -34 7 -5 8 -9 2 -9 -6 0 -10 -10 -9 -22 1
-13 -3 -26 -9 -30 -7 -5 -3 -8 9 -8 11 0 16 -4 10 -8 -14 -10 -17 -32 -4 -32
6 0 7 -5 2 -12 -11 -18 -10 -32 2 -40 7 -5 6 -8 -1 -8 -12 0 -12 -28 -1 -47 4
-6 3 -15 -3 -18 -8 -5 -8 -11 0 -20 8 -10 8 -15 -1 -20 -8 -6 -7 -10 2 -16 12
-7 12 -9 0 -9 -11 0 -11 -3 0 -17 10 -11 10 -14 2 -9 -7 4 -13 3 -13 -3 0 -5
4 -12 8 -15 10 -6 9 -36 -2 -54 -4 -7 -2 -12 6 -12 8 0 9 -3 3 -8 -15 -11 -18
-55 -2 -47 6 4 4 0 -6 -8 -16 -13 -16 -15 -1 -21 13 -5 14 -9 4 -21 -10 -12
-10 -15 1 -15 9 0 10 -3 4 -8 -12 -9 -20 -46 -7 -39 10 7 9 -43 -2 -61 -4 -7
-2 -12 6 -12 8 0 9 -3 3 -8 -14 -10 -17 -52 -4 -52 8 0 7 -5 -1 -15 -10 -12
-10 -15 0 -15 10 0 10 -3 0 -15 -10 -12 -10 -15 1 -15 9 0 10 -3 4 -8 -15 -11
-17 -32 -3 -32 6 0 4 -6 -6 -13 -16 -12 -16 -14 -2 -26 12 -11 14 -17 5 -27
-9 -11 -8 -14 2 -14 12 0 12 -2 1 -9 -8 -4 -14 -12 -14 -16 0 -4 6 -12 14 -16
9 -6 9 -9 1 -9 -8 0 -9 -9 -4 -27 6 -23 7 -98 1 -98 -8 0 -6 -36 2 -42 7 -4 8
-1 3 7 -5 9 -4 11 4 6 6 -4 9 -11 6 -16 -6 -9 14 -27 35 -32 8 -2 18 -10 22
-18 5 -12 7 -11 7 3 1 10 5 16 10 13 11 -7 61 31 61 46 0 6 8 21 18 32 16 20
16 20 0 7 -16 -12 -18 -11 -18 3 0 9 6 16 13 16 8 0 7 4 -3 11 -11 8 -12 12
-2 16 6 2 9 10 6 15 -4 7 -2 8 5 4 6 -4 9 -11 6 -16 -3 -4 3 -14 12 -21 14
-12 16 -12 9 1 -5 11 -4 10 6 -1 17 -21 94 -31 108 -14 5 6 8 14 5 17 -3 3 1
11 9 17 12 10 17 8 26 -10 10 -17 9 -23 -1 -30 -11 -7 -10 -9 4 -9 9 0 17 -5
17 -11 0 -5 -4 -8 -9 -4 -5 3 -13 0 -17 -6 -4 -7 -3 -9 4 -5 6 3 14 1 18 -5 3
-6 0 -15 -7 -20 -12 -7 -12 -9 0 -9 11 0 10 -4 -4 -13 -13 -10 -15 -16 -6 -21
9 -6 9 -11 0 -22 -10 -12 -10 -15 1 -12 16 3 20 -19 8 -44 -6 -12 -5 -18 4
-18 10 0 10 -2 1 -8 -8 -5 -9 -13 -3 -22 5 -9 5 -19 -1 -27 -6 -7 -7 -18 -3
-25 4 -7 9 -23 10 -36 4 -33 21 -51 44 -45 12 3 20 0 20 -7 0 -9 4 -9 17 1 14
12 15 12 9 0 -6 -8 0 -7 18 4 14 10 23 22 19 29 -4 6 1 5 10 -3 15 -12 17 -12
11 4 -6 14 -4 16 7 10 11 -6 12 -5 2 6 -15 15 -18 33 -5 25 5 -3 9 1 9 9 0 8
-4 12 -9 9 -4 -3 -8 -1 -8 5 0 5 6 12 13 14 9 4 9 6 -1 6 -7 1 -10 6 -7 11 3
6 0 10 -7 10 -8 0 -6 5 5 11 14 8 16 14 6 25 -6 8 -7 14 -2 14 5 0 9 11 9 24
0 14 -4 22 -8 20 -4 -3 -8 0 -8 5 0 6 6 11 13 11 8 0 7 4 -3 10 -13 8 -13 10
-1 10 11 0 9 4 -5 15 -14 11 -15 14 -2 9 17 -6 19 10 5 32 -3 6 -3 14 0 18 11
10 12 37 2 30 -5 -3 -9 -1 -9 5 0 5 6 12 13 14 10 4 10 6 0 6 -7 1 -13 6 -13
12 0 5 4 7 10 4 6 -3 7 1 4 9 -3 9 -11 13 -18 10 -6 -3 -2 2 8 10 11 9 14 16
8 16 -7 0 -12 5 -12 10 0 6 8 10 18 10 14 0 15 2 2 9 -8 6 -19 7 -25 4 -5 -4
-1 4 10 17 11 13 14 20 8 16 -16 -9 -17 6 -1 22 9 9 9 15 0 24 -16 16 -15 31
1 22 10 -6 10 -4 0 7 -19 20 -16 33 5 18 16 -13 16 -12 1 6 -17 21 -22 58 -7
49 5 -3 5 -10 2 -16 -4 -6 -2 -8 4 -5 5 4 8 16 5 27 -3 12 1 22 11 26 9 3 13
10 10 15 -11 19 8 8 33 -18 15 -16 23 -22 19 -15 -4 6 -5 12 -2 12 3 0 10 -9
16 -20 8 -16 8 -18 -4 -14 -11 4 -13 0 -9 -16 4 -16 8 -18 14 -8 5 7 9 8 9 2
0 -6 -3 -14 -7 -18 -9 -9 -13 -67 -4 -62 4 3 7 -4 7 -15 0 -13 -5 -18 -16 -14
-11 5 -12 3 -3 -6 6 -6 9 -18 6 -27 -5 -11 -3 -13 7 -7 10 6 11 4 4 -6 -12
-20 -14 -40 -3 -33 5 3 9 0 9 -6 0 -6 5 -8 12 -4 6 4 8 3 5 -3 -4 -6 2 -22 13
-34 18 -21 19 -22 14 -4 -5 19 -5 19 9 3 8 -10 20 -18 26 -18 7 0 9 -5 5 -12
-5 -7 -3 -8 5 -4 7 5 9 11 6 15 -4 3 10 11 32 17 21 7 37 17 35 23 -1 6 3 11
9 11 5 0 7 5 4 10 -3 6 -2 10 4 10 6 0 7 7 4 17 -5 12 -3 14 7 8 9 -6 11 -4 5
6 -5 7 -8 40 -7 74 4 110 4 154 -3 165 -3 5 -2 10 4 10 6 0 8 6 5 14 -3 7 2
20 10 29 8 8 12 18 8 22 -4 5 1 5 10 2 11 -4 15 -2 12 6 -5 14 52 17 73 4 6
-4 14 -1 16 5 4 10 8 9 16 -2 6 -8 11 -10 11 -4 0 7 7 15 16 18 8 3 12 2 9 -3
-3 -5 -1 -12 5 -16 5 -3 10 -1 10 5 0 7 7 10 15 6 8 -3 15 -1 15 4 0 6 5 10
11 10 5 0 8 -4 4 -9 -3 -5 -1 -12 5 -16 5 -3 10 -1 10 5 0 7 7 10 15 6 8 -3
15 0 15 7 0 7 7 3 15 -7 9 -12 15 -15 15 -7 0 8 6 11 15 7 8 -3 15 -1 15 5 0
6 5 7 10 4 6 -4 7 -12 3 -18 -4 -7 0 -6 10 2 14 11 20 11 32 1 13 -11 15 -10
9 6 -5 18 -5 18 10 0 9 -11 16 -15 16 -9 0 13 98 14 106 1 3 -4 13 -4 22 1 22
11 73 11 66 0 -3 -5 -1 -9 5 -9 5 0 11 6 14 13 3 9 8 8 22 -3 11 -9 16 -10 11
-2 -4 6 -3 12 1 12 5 0 15 -6 22 -12 10 -11 11 -9 5 7 -5 16 -4 18 6 8 7 -6
19 -9 28 -6 11 5 13 2 7 -8 -6 -11 -5 -12 6 -1 19 17 34 15 19 -3 -11 -13 -10
-14 5 -9 12 5 23 1 31 -11 8 -11 14 -13 14 -6 0 7 5 9 10 6 6 -3 10 -1 10 4 0
6 -4 11 -10 11 -5 0 -10 5 -10 11 0 5 5 7 10 4 6 -3 10 -1 10 4 0 6 -4 11 -10
11 -5 0 -10 5 -10 11 0 5 5 7 10 4 6 -3 10 -1 10 4 0 6 -5 11 -12 11 -9 0 -9
3 0 12 7 7 12 17 12 22 0 6 -4 5 -9 -3 -6 -9 -9 0 -8 27 1 25 5 39 11 35 6 -3
5 0 -1 8 -7 7 -13 20 -13 29 0 13 1 13 10 0 7 -12 9 -10 7 7 0 12 -5 19 -9 17
-4 -3 -8 -1 -8 5 0 5 4 12 9 16 6 3 9 14 8 25 -1 10 -5 16 -9 14 -4 -3 -8 0
-8 5 0 6 6 11 13 11 8 0 7 4 -3 10 -13 9 -13 11 0 20 12 8 12 10 1 10 -11 0
-11 3 0 17 10 11 10 14 2 9 -16 -9 -16 -1 -2 26 8 15 8 19 0 14 -6 -4 -11 -3
-11 3 0 5 5 13 10 16 8 5 7 11 -1 21 -9 11 -8 18 2 31 12 15 12 16 -1 8 -13
-8 -13 -7 -1 8 9 11 10 17 2 17 -6 0 -11 7 -11 16 0 8 4 13 8 10 4 -2 8 4 9
14 1 11 -2 22 -8 25 -5 4 -9 11 -9 16 0 6 5 7 10 4 6 -3 10 -1 10 4 0 6 -4 11
-10 11 -5 0 -10 5 -10 11 0 5 4 8 8 5 5 -3 9 1 9 9 0 8 -5 15 -10 15 -5 0 -3
8 4 17 10 11 10 14 2 9 -16 -9 -16 -1 -2 26 8 15 8 19 0 14 -7 -5 -11 2 -11
16 0 18 2 20 10 8 7 -12 9 -10 7 7 0 12 -5 19 -9 17 -4 -3 -8 2 -8 11 0 9 4
14 8 11 5 -3 9 1 9 9 0 8 -4 12 -9 9 -4 -3 -8 2 -8 11 0 10 5 14 13 9 9 -5 9
-4 0 6 -8 9 -9 19 -3 31 7 12 6 20 0 24 -8 5 -7 12 1 22 10 11 10 16 0 23 -10
5 -10 9 -2 15 9 5 9 11 -1 23 -11 13 -11 14 0 8 10 -6 12 -1 8 21 -2 15 -5 30
-6 33 -1 3 -2 8 -1 12 0 4 -7 4 -16 1 -10 -4 -14 -2 -9 5 4 7 -1 10 -14 7 -11
-2 -18 0 -15 6 6 8 -8 13 -27 10 -5 0 -8 5 -8 13 0 8 -9 12 -25 11 -14 -2 -27
1 -31 6 -3 5 -10 7 -15 4 -5 -3 -6 1 -3 9 4 12 0 16 -16 16 -14 0 -20 5 -17
13 3 8 -4 14 -20 15 -34 3 -83 33 -76 46 4 6 -2 4 -12 -4 -11 -9 -16 -10 -11
-2 5 8 0 12 -14 12 -16 0 -20 4 -16 16 5 14 4 15 -9 4 -11 -9 -15 -9 -15 -1 0
7 -4 9 -10 6 -5 -3 -10 1 -10 10 0 9 -4 13 -10 10 -5 -3 -10 -2 -10 2 0 5 -10
9 -22 10 -11 1 -24 6 -27 11 -3 5 -14 11 -24 15 -11 4 -15 12 -11 19 6 10 4
10 -8 0 -13 -10 -18 -10 -24 -1 -5 8 -3 9 6 4 9 -6 11 -4 5 4 -4 7 -15 11 -25
8 -11 -3 -28 5 -41 19 -12 13 -31 24 -41 24 -10 0 -18 5 -18 10 0 6 -7 10 -15
10 -8 0 -15 5 -15 11 0 6 -9 9 -20 6 -11 -3 -18 0 -17 7 1 6 -6 10 -15 10 -10
-1 -15 3 -11 9 4 6 0 8 -11 4 -9 -4 -14 -3 -11 2 3 5 -5 11 -17 13 -13 2 -22
9 -21 15 2 8 -4 10 -14 6 -11 -4 -14 -3 -9 5 9 14 6 15 -13 3z m824 -469 c-3
-3 -11 0 -18 7 -9 10 -8 11 6 5 10 -3 15 -9 12 -12z m-1009 -241 c-3 -5 1 -12
10 -15 10 -4 13 -2 8 6 -5 8 1 9 20 4 18 -4 25 -3 21 3 -3 7 0 8 9 5 9 -3 13
-10 10 -15 -3 -5 2 -6 10 -3 9 3 13 11 10 16 -4 6 1 6 13 -1 11 -6 23 -7 27
-4 3 3 6 -6 6 -21 0 -18 4 -25 12 -20 8 5 8 3 2 -7 -5 -8 -9 -48 -9 -89 l0
-75 -38 -3 c-29 -2 -37 1 -32 10 4 7 0 5 -8 -5 -9 -11 -18 -14 -21 -8 -4 6
-18 6 -37 1 -27 -8 -30 -7 -25 8 4 10 -2 7 -15 -8 -11 -14 -18 -20 -15 -13 4
6 -4 19 -16 28 -25 17 -26 24 -6 36 10 7 10 9 -2 9 -10 0 -15 11 -15 35 0 19
2 35 6 35 8 0 5 42 -4 57 -6 9 -3 11 8 7 10 -4 15 -2 13 6 -2 7 3 15 11 18 9
3 11 0 6 -8 -5 -8 1 -7 16 3 27 19 33 21 25 8z m278 -2 c5 7 15 7 32 1 32 -13
37 -12 28 1 -3 6 9 3 27 -7 29 -14 32 -15 21 -1 -11 13 -10 15 7 10 12 -3 19
-9 16 -13 -3 -5 0 -10 5 -12 6 -2 12 -10 13 -18 2 -8 6 -21 10 -27 5 -8 4 -13
-2 -13 -6 0 -12 5 -12 10 -1 6 -2 14 -3 19 0 5 -4 13 -8 17 -4 3 -5 -4 -2 -17
3 -13 6 -29 6 -36 1 -7 5 -10 10 -7 4 3 8 -2 8 -11 0 -10 -5 -13 -12 -9 -9 5
-9 2 1 -9 9 -11 10 -17 2 -17 -6 0 -11 -5 -11 -11 0 -5 5 -7 11 -3 8 4 9 -1 4
-16 -5 -17 -4 -21 6 -16 8 4 6 1 -3 -7 -14 -11 -15 -16 -5 -27 10 -10 8 -10
-10 -1 -13 6 -23 8 -23 4 0 -4 -14 -8 -30 -8 -22 0 -29 4 -25 15 4 12 3 12 -7
-1 -9 -11 -20 -14 -33 -9 -11 4 -32 4 -47 -1 -21 -6 -28 -4 -28 7 0 8 -4 14
-8 14 -5 0 -9 7 -9 15 0 8 4 12 9 9 4 -3 8 0 8 5 0 6 -5 11 -11 11 -8 0 -8 4
0 14 9 11 9 16 0 21 -8 6 -7 10 2 16 10 6 11 9 2 9 -7 0 -13 5 -13 11 0 5 6 7
13 3 10 -6 10 -4 0 7 -7 7 -13 17 -13 22 0 4 6 5 13 1 7 -5 6 -1 -3 10 -12 16
-11 20 10 36 17 13 28 15 36 9 8 -7 14 -6 18 0z m-337 -231 c-3 -8 -6 -5 -6 6
-1 11 2 17 5 13 3 -3 4 -12 1 -19z m328 -57 c-2 -4 2 -8 9 -8 8 0 12 6 9 13
-3 9 4 10 31 4 24 -5 34 -4 30 2 -4 6 -1 8 7 6 8 -3 13 -11 11 -17 -1 -7 2
-10 8 -6 5 3 10 14 11 23 0 11 3 12 6 5 2 -7 11 -13 19 -13 8 0 14 -9 14 -21
0 -11 4 -17 10 -14 6 3 7 -1 4 -9 -3 -9 -10 -14 -14 -11 -5 3 -5 -8 0 -24 5
-19 4 -33 -3 -40 -6 -6 -7 -11 -1 -11 5 0 2 -5 -6 -11 -13 -9 -13 -10 0 -6 8
2 14 10 13 16 -4 13 4 15 12 2 3 -5 -2 -16 -10 -24 -13 -13 -13 -18 -2 -29 11
-11 11 -16 2 -25 -7 -7 -16 -9 -19 -6 -3 4 -6 1 -6 -6 0 -7 -5 -9 -12 -5 -17
10 -68 11 -68 0 0 -5 -7 -3 -15 4 -12 10 -15 10 -15 -1 0 -11 -2 -11 -10 1 -6
10 -10 11 -10 3 0 -7 -5 -13 -11 -13 -5 0 -7 5 -3 12 4 7 3 8 -5 4 -6 -4 -19
-2 -27 5 -12 10 -13 9 -8 -7 5 -15 4 -16 -4 -4 -8 10 -8 18 0 27 8 10 7 13 -3
13 -10 0 -10 3 -1 12 14 14 16 32 4 24 -5 -3 -9 1 -9 9 0 8 3 15 7 15 4 0 7 7
7 15 0 8 -4 12 -9 9 -4 -3 -8 2 -8 11 0 9 5 13 10 10 6 -3 10 -1 10 4 0 6 -5
11 -12 11 -9 0 -9 3 0 12 14 14 16 32 2 23 -5 -3 -7 0 -4 9 3 8 12 12 19 10 7
-3 16 0 21 7 5 8 3 10 -6 4 -9 -5 -11 -4 -6 4 6 9 11 9 22 0 7 -6 12 -15 9
-18z m-240 -7 c9 -1 11 4 7 14 -5 15 -2 15 23 -2 26 -17 28 -17 21 -1 -5 15
-4 16 8 6 11 -9 15 -9 19 1 3 8 6 5 6 -6 1 -19 2 -19 14 -2 12 17 13 16 14
-10 0 -16 4 -38 8 -48 5 -11 5 -17 -1 -14 -10 7 -10 -65 1 -81 3 -6 0 -11 -7
-11 -9 0 -9 -3 2 -10 13 -9 13 -10 0 -10 -13 0 -13 -1 0 -10 13 -8 12 -10 -3
-10 -10 0 -15 -5 -12 -10 4 -6 1 -9 -7 -8 -7 2 -16 10 -20 18 -5 12 -7 12 -7
-3 -1 -14 -5 -16 -20 -7 -24 12 -34 13 -27 2 8 -13 -25 -8 -54 8 -22 12 -24
12 -13 -2 11 -13 9 -15 -12 -14 -13 1 -28 6 -32 10 -5 5 -2 6 6 1 10 -6 12 -4
7 4 -5 7 -15 10 -24 6 -12 -4 -12 -1 4 16 10 12 13 19 7 15 -8 -4 -13 -2 -14
6 0 7 -2 21 -4 31 -2 9 1 15 6 11 13 -8 11 10 -3 25 -10 11 -10 13 0 7 15 -9
16 10 1 20 -8 4 -8 9 0 17 7 7 7 15 -2 26 -9 12 -9 13 1 7 7 -4 12 -2 12 8 0
9 8 13 25 11 14 -1 25 2 25 8 0 5 7 3 16 -4 9 -7 22 -14 29 -15z m715 -438 c0
-3 -4 -8 -10 -11 -5 -3 -10 -1 -10 4 0 6 5 11 10 11 6 0 10 -2 10 -4z m-1250
-520 c0 -2 -8 -10 -17 -17 -16 -13 -17 -12 -4 4 13 16 21 21 21 13z"/>
<path d="M3270 5006 c0 -2 7 -7 16 -10 8 -3 12 -2 9 4 -6 10 -25 14 -25 6z"/>
<path d="M3395 4930 c3 -5 8 -10 11 -10 2 0 4 5 4 10 0 6 -5 10 -11 10 -5 0
-7 -4 -4 -10z"/>
<path d="M3715 4881 c6 -11 4 -13 -7 -9 -11 5 -15 0 -14 -15 0 -12 6 -25 11
-29 6 -5 6 -8 -1 -8 -12 0 -11 -60 1 -81 5 -8 4 -10 -3 -5 -16 10 -15 -16 1
-33 10 -11 9 -12 -3 -6 -13 8 -13 7 -1 -8 7 -9 9 -17 4 -17 -5 0 -9 -9 -10
-20 -1 -11 4 -20 10 -20 8 0 8 -3 2 -8 -12 -9 -18 -55 -6 -48 5 3 8 -2 7 -10
-1 -14 10 -17 64 -16 98 2 120 4 120 12 0 3 11 13 25 20 13 7 22 16 20 20 -3
5 2 11 11 14 8 3 12 10 9 16 -3 5 -1 10 5 10 6 0 8 5 5 10 -3 6 -1 10 4 10 6
0 11 5 11 11 0 5 -4 8 -9 4 -6 -3 -6 6 -1 25 5 16 5 32 0 35 -4 3 -6 15 -2 27
4 16 2 19 -9 13 -11 -6 -12 -5 -1 6 6 7 12 18 12 23 0 6 -5 4 -10 -4 -8 -13
-10 -12 -10 3 0 10 -4 15 -10 12 -5 -3 -10 3 -10 15 0 12 -4 18 -10 15 -5 -3
-10 -1 -10 5 0 7 -7 9 -16 6 -8 -3 -12 -2 -9 4 5 9 -24 15 -49 11 -5 -1 -13 4
-17 11 -7 10 -9 10 -9 1 0 -7 -7 -13 -15 -13 -8 0 -15 6 -15 13 0 7 -3 8 -8 2
-11 -16 -33 -17 -50 -3 -13 11 -14 11 -7 -1z m110 -61 c3 0 3 5 -1 12 -11 18
19 -3 34 -24 7 -10 19 -18 26 -18 8 0 13 -10 12 -22 -1 -15 4 -22 13 -20 12 3
12 0 1 -12 -10 -13 -10 -19 1 -33 8 -9 9 -14 3 -10 -7 4 -14 0 -18 -8 -3 -8 0
-15 7 -15 8 0 9 -2 1 -8 -6 -4 -10 -14 -9 -23 2 -10 -4 -16 -14 -15 -10 1 -15
-6 -15 -17 2 -13 -1 -15 -11 -7 -9 7 -16 6 -25 -5 -9 -11 -17 -12 -31 -4 -10
5 -19 6 -19 2 0 -4 -4 -1 -10 7 -6 9 -5 17 3 22 8 5 8 8 -3 8 -9 0 -16 9 -16
19 0 11 4 17 8 15 13 -8 9 11 -4 25 -10 11 -10 13 0 7 6 -4 12 -2 12 3 0 6 -6
11 -12 12 -9 0 -9 2 1 6 11 5 11 7 0 14 -10 6 -11 9 -1 9 6 0 12 7 12 16 0 9
-5 12 -12 8 -9 -5 -9 -2 1 9 11 14 11 17 0 17 -10 1 -8 4 4 11 9 5 17 17 17
25 0 11 4 12 19 4 11 -5 22 -10 26 -10z m-55 0 c0 -5 -5 -10 -11 -10 -5 0 -7
5 -4 10 3 6 8 10 11 10 2 0 4 -4 4 -10z"/>
<path d="M4041 4883 c-1 -6 -9 -10 -18 -8 -15 2 -18 -4 -16 -43 1 -26 -3 -53
-10 -61 -9 -12 -9 -13 1 -7 8 5 12 0 12 -16 0 -13 -6 -30 -12 -37 -10 -11 -10
-13 0 -7 9 6 12 -12 12 -76 l0 -83 97 1 c92 1 98 2 98 21 0 12 -3 20 -6 19 -3
0 -13 5 -22 12 -12 10 -17 10 -23 1 -5 -8 -3 -9 6 -4 9 5 11 4 6 -3 -5 -8 -13
-9 -25 -2 -12 6 -22 5 -30 -3 -10 -9 -11 -8 -6 5 5 13 2 15 -16 11 -18 -5 -21
-3 -16 10 4 10 3 17 -2 17 -12 0 0 60 13 61 6 1 28 1 49 0 27 -1 37 3 37 15 0
8 5 12 11 9 6 -4 5 2 -3 14 -13 22 -28 28 -28 12 0 -6 -12 -6 -27 -2 -16 4
-33 6 -39 4 -14 -5 -27 24 -14 32 5 3 7 12 4 20 -6 16 20 48 30 38 9 -10 56
-10 56 0 0 4 9 3 19 -3 25 -13 41 -13 21 0 -10 6 -11 10 -2 10 19 0 14 24 -8
37 -12 8 -21 9 -25 3 -4 -6 -11 -8 -16 -5 -5 4 -9 0 -10 -7 0 -7 -4 -4 -9 7
-5 11 -9 15 -9 8 -1 -6 -12 -10 -26 -8 -14 1 -28 -2 -32 -8 -4 -6 -10 -3 -14
9 -4 10 -8 14 -8 7z"/>
<path d="M4285 4879 c6 -9 4 -11 -7 -6 -22 8 -30 -3 -15 -21 9 -13 9 -14 0 -8
-8 4 -13 1 -13 -9 0 -10 5 -13 13 -9 8 5 7 2 -2 -10 -11 -12 -11 -20 -3 -28 8
-8 9 -15 1 -25 -9 -10 -8 -17 2 -30 8 -9 9 -14 3 -10 -13 8 -14 -120 -1 -140
4 -6 3 -14 -3 -18 -18 -11 -1 -22 26 -17 16 3 29 -1 35 -9 7 -11 9 -11 9 -1 0
10 15 13 58 11 39 -1 56 2 55 9 -2 7 2 12 8 12 5 0 7 5 4 10 -4 6 -11 8 -16 5
-5 -4 -9 -1 -9 5 0 6 -4 8 -10 5 -5 -3 -10 0 -10 7 0 10 -2 10 -9 -1 -6 -9
-11 -10 -15 -2 -5 7 -15 7 -31 1 -24 -9 -30 -4 -26 23 0 4 -5 7 -11 7 -9 0 -8
4 2 10 12 8 12 10 1 10 -11 0 -11 3 0 17 10 11 10 14 2 9 -7 -4 -13 -2 -13 3
0 6 5 11 11 11 8 0 8 4 0 14 -9 10 -9 16 -1 21 8 5 8 11 -1 21 -9 11 -8 14 2
14 11 0 11 2 -1 10 -11 7 -11 10 -2 10 9 0 10 5 2 19 -7 14 -7 22 0 26 8 5 7
12 -2 23 -10 12 -10 14 0 8 24 -14 12 2 -14 19 -15 10 -23 12 -19 4z"/>
<path d="M4510 4875 c10 -12 11 -16 2 -11 -22 13 -62 15 -55 2 4 -6 8 -17 9
-24 3 -19 14 -28 14 -12 0 10 3 10 15 0 8 -7 15 -8 15 -3 0 5 7 10 14 10 8 0
14 -5 13 -11 -1 -6 3 -10 8 -9 6 1 10 -10 10 -23 0 -13 -3 -24 -7 -24 -5 0 -8
-5 -8 -11 0 -5 4 -8 9 -5 5 3 8 -5 7 -19 0 -14 -4 -25 -8 -25 -5 0 -8 -5 -8
-11 0 -5 5 -7 10 -4 6 3 10 2 10 -4 0 -5 -5 -13 -10 -16 -6 -4 -7 -12 -3 -18
12 -19 14 -49 4 -42 -6 3 -6 -6 -1 -24 6 -21 5 -31 -3 -34 -7 -2 7 -6 30 -8
37 -4 40 -2 32 13 -8 14 -6 16 7 11 13 -5 15 -2 7 13 -10 21 -10 114 0 131 4
6 0 14 -9 17 -12 4 -13 10 -6 19 6 6 9 27 8 44 -1 20 3 34 11 38 8 2 11 1 8
-4 -3 -5 -1 -12 5 -16 5 -3 10 0 10 8 0 16 31 18 42 2 5 -6 8 -5 8 3 0 8 5 10
12 6 7 -4 2 7 -11 25 -17 24 -26 29 -36 21 -15 -12 -36 -10 -47 5 -5 7 -8 6
-8 0 0 -6 -9 -11 -20 -12 -11 -1 -18 1 -16 5 3 4 -4 8 -14 8 -15 0 -17 -3 -7
-15 9 -10 2 -9 -23 4 -34 18 -35 18 -20 0z"/>
<path d="M4829 4863 c-13 -14 -18 -23 -12 -19 9 5 11 2 7 -8 -3 -9 -10 -16
-14 -16 -4 0 -7 -8 -7 -17 0 -37 -3 -44 -15 -37 -8 5 -7 0 2 -11 10 -13 11
-16 2 -11 -10 6 -13 2 -10 -15 2 -13 -2 -23 -8 -22 -6 1 -11 -3 -11 -10 0 -7
-4 -21 -9 -31 -6 -15 -4 -18 7 -12 8 4 5 0 -5 -8 -11 -9 -20 -25 -21 -37 -1
-11 -8 -25 -16 -30 -11 -7 -10 -9 6 -9 15 0 17 -2 6 -9 -9 -6 -4 -10 17 -13
17 -2 29 -1 26 4 -3 4 1 8 8 8 10 0 9 3 -2 10 -12 8 -12 10 2 15 10 4 15 15
13 27 -3 14 0 18 10 14 8 -3 12 0 9 7 -2 7 4 13 16 14 11 1 20 -4 20 -10 0 -8
3 -8 9 1 12 19 19 17 46 -14 19 -22 22 -32 13 -47 -7 -14 -7 -17 1 -13 6 4 11
3 11 -2 0 -6 16 -12 35 -14 27 -3 32 -1 23 9 -8 10 -6 13 8 13 17 1 16 2 -4
13 -17 10 -20 15 -10 25 9 9 9 12 -1 12 -7 0 -11 6 -8 13 2 6 -2 17 -10 22 -7
6 -14 25 -16 42 -1 18 -6 33 -11 33 -4 0 -6 7 -3 14 4 11 1 13 -11 9 -15 -6
-15 -5 -3 10 9 11 10 17 2 17 -6 0 -11 11 -11 25 0 14 -5 25 -11 25 -5 0 -7 5
-4 10 3 6 -2 10 -12 11 -11 0 -13 3 -5 6 6 2 10 9 7 13 -3 5 -13 6 -22 3 -11
-4 -14 -3 -9 5 12 20 1 13 -25 -15z m27 -109 c-4 -12 -2 -15 9 -10 16 6 16
-14 0 -26 -6 -5 -6 -8 1 -8 6 0 11 -7 11 -15 0 -8 -3 -13 -5 -10 -3 3 -12 -1
-20 -8 -13 -9 -14 -9 -8 1 4 7 2 12 -8 12 -8 0 -18 5 -22 12 -4 6 -3 8 3 5 7
-4 13 8 17 28 4 19 12 35 18 35 5 0 7 -7 4 -16z"/>
<path d="M3781 4257 c-1 -14 -5 -16 -20 -7 -14 7 -21 6 -24 -3 -4 -8 -6 -8 -6
2 -1 11 -5 10 -17 -5 -8 -10 -13 -14 -10 -7 4 6 3 14 -2 17 -13 8 -11 -27 2
-43 8 -11 8 -13 -1 -7 -9 5 -13 1 -13 -13 0 -11 5 -23 10 -26 6 -4 7 -13 2
-23 -10 -20 -10 -33 1 -49 5 -7 5 -18 2 -24 -11 -16 -13 -59 -4 -59 5 0 9 -5
9 -11 0 -5 -4 -8 -9 -5 -4 3 -8 -8 -7 -24 1 -17 5 -30 9 -30 5 0 6 -4 3 -9
-11 -17 19 -18 32 -2 8 9 10 10 6 2 -4 -9 -2 -12 6 -9 7 2 14 12 16 21 1 11
-2 14 -9 10 -7 -4 -6 1 2 10 10 13 10 17 1 17 -10 0 -10 3 -1 14 8 9 8 16 2
20 -6 4 -8 13 -5 21 4 8 10 13 14 10 5 -3 11 1 13 7 4 10 6 10 6 1 1 -7 8 -10
16 -7 8 4 12 11 8 18 -4 6 1 5 10 -3 14 -11 17 -11 17 0 0 12 2 12 9 1 7 -11
9 -10 15 3 3 9 11 13 17 9 7 -4 9 -3 6 3 -4 6 0 14 9 17 10 4 14 14 11 26 -3
11 -1 18 3 15 5 -3 11 -1 15 5 3 5 1 10 -4 10 -6 0 -11 14 -11 30 0 17 -5 30
-11 30 -5 0 -7 4 -4 10 3 5 0 7 -8 4 -8 -3 -17 1 -19 8 -3 7 -20 13 -39 13
-21 0 -37 5 -41 15 -5 12 -7 12 -7 -3z m5 -52 c-5 -13 -2 -14 17 -4 12 6 19 8
15 4 -4 -4 3 -15 15 -25 19 -16 20 -20 7 -36 -9 -10 -10 -15 -3 -10 9 5 11 2
7 -8 -3 -9 -11 -13 -17 -9 -6 4 -8 0 -4 -10 5 -12 0 -15 -21 -11 -49 8 -56 13
-42 29 10 12 10 15 -1 15 -9 0 -10 3 -4 8 16 11 19 45 3 36 -7 -4 -4 2 7 14
24 25 29 27 21 7z"/>
<path d="M5489 4265 c-1 -5 -1 -14 0 -18 1 -5 -8 -6 -19 -2 -13 4 -22 1 -26
-9 -3 -9 -10 -14 -14 -11 -5 3 -20 -6 -34 -20 -14 -14 -20 -25 -13 -25 8 0 7
-3 -2 -9 -8 -5 -10 -14 -6 -21 5 -8 4 -11 -2 -7 -14 9 -26 -24 -14 -36 7 -7 7
-16 0 -29 -7 -13 -6 -18 2 -18 8 0 8 -4 -1 -15 -11 -13 -7 -19 11 -17 4 1 4
-8 1 -20 -3 -14 -1 -19 6 -14 8 5 10 2 6 -8 -3 -9 -1 -16 6 -16 6 0 8 -4 5
-10 -3 -5 -1 -10 5 -10 6 0 8 -5 4 -12 -6 -10 -4 -10 8 0 13 10 17 10 22 -3 3
-9 10 -14 15 -10 5 3 12 1 16 -5 3 -5 11 -10 16 -10 6 0 7 6 3 13 -5 8 -2 8 9
-2 14 -11 17 -11 17 0 0 12 2 12 9 0 6 -10 10 -10 16 -1 6 9 10 9 16 -1 7 -11
9 -10 9 3 0 12 5 15 17 11 10 -4 14 -2 10 4 -3 5 0 10 8 10 8 0 15 -6 15 -13
0 -16 30 -27 32 -11 5 41 4 114 -3 122 -4 6 -4 17 1 25 18 28 4 36 -27 17 -7
-4 -16 0 -22 10 -6 11 -11 13 -11 5 0 -7 -4 -11 -9 -8 -5 4 -12 0 -14 -6 -4
-10 -6 -10 -6 0 -1 6 -8 12 -18 12 -9 0 -13 -3 -10 -7 4 -3 2 -12 -3 -18 -8
-9 -6 -14 5 -19 11 -4 14 -2 9 7 -5 7 -1 6 10 -2 15 -13 19 -13 28 0 8 11 9 9
5 -7 -2 -12 0 -29 6 -39 8 -15 7 -17 -7 -12 -14 6 -15 4 -5 -16 11 -20 11 -21
-5 -8 -14 12 -16 12 -10 -4 6 -13 4 -16 -5 -10 -8 4 -17 2 -22 -6 -6 -10 -9
-11 -9 -1 0 6 -5 12 -11 12 -5 0 -7 -6 -3 -12 6 -10 5 -10 -8 -1 -8 7 -18 10
-21 6 -4 -3 -7 0 -7 9 0 8 -10 20 -22 26 -13 6 -17 11 -10 11 6 1 12 6 12 12
0 5 -5 7 -12 3 -8 -5 -9 -2 -5 9 3 10 2 17 -4 17 -6 0 -7 5 -4 10 3 6 0 10 -7
10 -8 0 -9 3 -3 8 6 4 10 14 10 22 0 8 -4 18 -10 22 -6 4 -2 8 8 8 10 0 16 4
12 9 -3 5 2 17 11 25 8 9 12 16 8 16 -4 0 1 9 11 20 13 15 22 17 36 9 13 -6
19 -6 19 0 0 6 20 2 44 -9 38 -16 45 -17 50 -4 3 9 10 12 16 9 6 -3 7 1 4 9
-3 9 -10 13 -15 10 -5 -3 -9 2 -9 11 0 9 -4 13 -10 10 -5 -3 -10 -2 -10 4 0 7
-8 7 -25 1 -20 -8 -27 -6 -32 6 -5 13 -7 13 -14 2 -7 -11 -11 -10 -19 2 -5 8
-10 11 -11 5z"/>
<path d="M6555 4257 c-4 -9 -11 -15 -15 -12 -5 3 -8 -3 -7 -14 1 -15 5 -17 13
-10 9 8 11 5 7 -10 -3 -12 -1 -21 6 -21 6 0 11 -9 11 -20 0 -11 5 -20 11 -20
5 0 7 -4 4 -10 -3 -5 -1 -10 5 -10 6 0 8 -4 5 -10 -3 -5 -1 -10 5 -10 6 0 8
-4 5 -10 -3 -5 -2 -10 3 -10 6 0 13 -7 16 -16 4 -10 2 -13 -6 -8 -7 5 -8 3 -2
-7 12 -20 13 -62 2 -76 -7 -9 -7 -13 0 -13 6 0 9 -8 7 -18 -2 -10 1 -25 7 -33
8 -11 8 -9 4 6 -5 17 -4 18 6 5 12 -14 15 -14 29 1 12 12 14 21 6 35 -10 17
-9 18 8 4 17 -14 18 -14 6 8 -6 12 -9 22 -5 22 3 0 1 6 -5 14 -9 11 -9 16 0
22 8 5 9 3 4 -6 -5 -9 -4 -11 4 -6 6 4 8 13 4 19 -11 18 -12 37 -3 37 5 0 7
11 6 24 -2 18 1 23 12 18 10 -3 13 -1 8 6 -4 7 -2 12 3 12 6 0 11 9 11 21 0
11 5 17 10 14 6 -3 10 3 10 15 0 12 4 19 8 16 5 -3 8 7 8 23 0 54 -66 23 -70
-33 0 -13 -5 -24 -11 -23 -5 1 -9 -4 -7 -10 1 -8 -8 -13 -23 -13 -14 0 -25 5
-25 11 0 5 6 7 13 4 6 -4 4 0 -5 8 -10 8 -16 16 -13 18 2 3 -11 23 -30 44 -28
34 -35 37 -40 22z m195 -17 c0 -5 -2 -10 -4 -10 -3 0 -8 5 -11 10 -3 6 -1 10
4 10 6 0 11 -4 11 -10z"/>
<path d="M4045 4251 c3 -5 1 -12 -5 -16 -5 -3 -10 -16 -10 -28 0 -18 -2 -19
-10 -7 -8 11 -9 7 -4 -14 5 -22 4 -27 -6 -21 -9 5 -10 2 -5 -14 4 -13 2 -21
-5 -21 -7 0 -10 -7 -6 -15 3 -8 1 -15 -5 -15 -6 0 -8 -4 -4 -9 3 -5 1 -12 -4
-16 -6 -3 -7 -13 -4 -22 5 -11 3 -14 -6 -9 -9 6 -11 0 -8 -23 4 -23 1 -31 -10
-31 -10 0 -13 -6 -9 -15 3 -9 -1 -18 -9 -21 -11 -5 -12 -11 -4 -25 7 -14 14
-17 27 -10 9 4 23 7 30 5 7 -1 8 0 2 3 -13 6 -13 33 1 33 5 0 7 5 4 10 -3 6
-1 10 6 10 7 0 9 3 6 7 -4 3 -2 12 4 20 15 17 43 18 33 1 -6 -10 -4 -10 7 -2
13 9 20 10 56 6 7 -1 10 -9 6 -19 -4 -11 -3 -14 6 -9 8 5 12 3 10 -5 -3 -26 1
-52 7 -46 4 3 13 -1 22 -10 14 -14 17 -13 34 6 14 18 15 26 6 41 -7 10 -17 16
-23 12 -5 -3 -4 2 4 11 9 11 10 17 2 17 -6 0 -11 9 -11 20 0 11 -4 20 -9 20
-6 0 -8 9 -6 19 2 11 -3 22 -11 25 -7 3 -11 12 -8 19 3 8 -2 22 -11 31 -9 9
-12 16 -7 16 5 0 9 7 9 15 0 9 -4 11 -11 6 -7 -6 -12 -1 -13 15 -4 42 -6 54
-11 50 -2 -3 -15 -1 -29 5 -15 5 -22 5 -18 0z m22 -120 c-3 -12 0 -18 7 -15 6
2 12 -5 13 -16 1 -13 -2 -18 -10 -13 -8 5 -8 2 1 -9 10 -13 10 -17 -3 -22 -8
-3 -15 -1 -15 4 0 6 -5 10 -11 10 -5 0 -7 -5 -3 -12 4 -6 3 -8 -4 -5 -8 6 -9
23 -3 45 3 7 -5 17 -12 14 -5 -1 -6 2 -2 8 3 6 10 8 15 5 4 -3 10 2 14 10 8
22 19 18 13 -4z"/>
<path d="M4241 4250 c7 -5 17 -6 23 -3 5 3 6 1 2 -6 -4 -6 -11 -9 -15 -7 -4 3
-13 -4 -20 -16 -7 -11 -8 -17 -2 -13 6 3 11 1 11 -4 0 -6 -5 -11 -10 -11 -6 0
-5 -8 2 -20 11 -17 10 -22 -2 -30 -9 -6 -10 -10 -3 -10 12 0 10 -30 -3 -53 -6
-9 -4 -9 8 1 14 11 16 10 11 -7 -3 -12 -9 -18 -14 -15 -5 3 -6 -2 -3 -10 3 -9
11 -13 17 -9 6 4 7 1 1 -8 -5 -8 -9 -21 -9 -29 0 -8 -4 -21 -8 -28 -5 -7 -5
-12 0 -11 18 3 27 -2 17 -9 -8 -5 -3 -13 14 -26 14 -11 22 -14 18 -8 -4 7 -1
12 9 12 9 0 13 5 10 10 -3 6 -1 10 5 10 6 0 8 5 3 13 -11 18 -12 36 -2 42 5 4
1 18 -9 33 -12 18 -13 24 -3 18 11 -7 13 -3 8 23 -4 19 -3 30 3 26 9 -6 6 27
-5 45 -3 6 0 10 7 10 8 0 9 3 3 8 -13 10 -17 32 -6 32 6 0 6 10 0 28 -7 21
-16 27 -40 28 -20 1 -27 -1 -18 -6z"/>
<path d="M4370 4249 c0 -6 5 -7 12 -3 7 4 8 3 4 -5 -6 -9 -11 -9 -21 -1 -10 8
-13 4 -13 -17 0 -16 5 -31 12 -35 8 -6 8 -8 -1 -8 -6 0 -10 -9 -8 -20 2 -11
-2 -20 -8 -20 -8 0 -7 -4 2 -9 17 -11 23 -39 10 -47 -6 -3 -5 -12 3 -22 10
-12 10 -14 0 -8 -14 8 -12 -19 2 -43 7 -11 6 -12 -5 -6 -12 8 -12 6 0 -8 10
-13 10 -17 1 -17 -10 0 -10 -3 0 -15 7 -8 8 -15 3 -15 -5 0 -10 -7 -10 -15 0
-8 4 -12 8 -9 4 2 11 0 14 -6 10 -17 34 8 32 33 0 12 -6 25 -12 29 -6 5 -2 8
8 8 11 0 15 4 11 12 -10 16 -5 131 7 143 6 5 9 3 9 -8 0 -9 7 -20 16 -25 9 -5
15 -13 15 -18 -2 -19 11 -44 20 -39 5 4 9 -3 9 -15 0 -12 5 -18 10 -15 6 3 10
-2 10 -12 0 -10 9 -25 19 -33 11 -7 18 -17 15 -21 -2 -4 5 -14 16 -22 11 -7
18 -16 15 -19 -4 -4 25 -3 44 1 2 1 -3 9 -10 18 -10 12 -11 15 -1 9 9 -6 11
-1 8 18 -2 14 1 27 7 30 9 3 8 7 -2 14 -10 7 -11 14 -2 30 9 17 8 23 -5 30
-15 8 -15 10 1 16 14 5 15 9 5 21 -10 12 -10 15 1 15 11 0 11 2 0 9 -12 8 -12
12 -2 24 8 10 8 17 2 21 -6 4 -7 15 -2 29 7 18 4 25 -23 38 l-31 16 3 -61 c4
-115 4 -124 -8 -143 -10 -16 -11 -16 -6 0 4 11 0 17 -10 17 -11 0 -15 6 -11
20 3 10 2 19 -2 18 -17 -2 -34 3 -28 8 3 4 -1 13 -9 21 -8 9 -13 22 -10 30 4
9 2 11 -6 7 -8 -5 -9 -2 -5 9 4 10 2 16 -6 14 -7 -1 -11 6 -11 16 2 14 -1 15
-12 6 -11 -9 -14 -6 -15 17 0 16 -3 23 -6 17 -2 -7 -9 -13 -14 -13 -6 0 -8 4
-5 8 2 4 -4 9 -15 9 -10 1 -19 -3 -19 -8z"/>
<path d="M4667 4249 c-25 -14 -21 -39 6 -39 17 0 19 -2 7 -10 -11 -7 -9 -8 11
-6 13 1 30 6 37 10 15 9 14 13 17 -57 3 -42 0 -55 -8 -50 -7 4 -6 -1 2 -11 13
-15 13 -19 0 -27 -8 -5 -9 -9 -3 -9 12 0 13 -79 0 -100 -5 -8 -5 -11 -1 -7 5
4 15 -3 22 -15 7 -13 12 -18 13 -11 0 6 9 9 21 6 20 -6 20 -3 17 91 -2 53 -1
96 2 96 3 0 4 22 3 49 -1 47 0 49 28 53 20 3 33 -1 39 -11 8 -14 9 -14 10 2 0
10 4 16 8 13 4 -2 8 5 8 18 0 18 -5 22 -27 20 -15 -1 -32 -5 -38 -8 -5 -4 -12
-2 -16 4 -4 6 -11 8 -16 4 -17 -10 -59 -12 -65 -3 -3 5 -12 9 -20 9 -9 0 -12
-5 -8 -11 4 -8 1 -8 -13 -1 -12 7 -25 7 -36 1z"/>
<path d="M4945 4250 c-4 -6 -3 -16 1 -22 6 -10 4 -10 -8 0 -14 12 -16 10 -11
-10 4 -13 11 -26 17 -30 8 -6 8 -8 -1 -8 -6 0 -10 -8 -8 -17 1 -10 -3 -24 -9
-32 -8 -11 -8 -13 2 -7 8 5 12 1 12 -11 0 -11 -6 -25 -12 -32 -8 -9 -8 -11 -2
-8 16 9 25 -18 11 -32 -6 -6 -7 -11 -3 -11 5 0 2 -8 -5 -17 -10 -11 -10 -14
-1 -9 15 9 16 -8 1 -36 -9 -16 -8 -19 2 -13 8 6 11 4 6 -7 -7 -20 38 -43 50
-25 4 7 8 20 9 30 1 9 2 18 4 20 7 8 7 38 -1 42 -4 3 -4 16 1 29 4 13 4 29 0
37 -6 8 -4 16 3 21 9 6 8 8 -3 8 -13 0 -13 1 0 10 13 9 13 10 0 10 -13 0 -13
1 0 10 11 7 11 10 2 10 -8 0 -10 5 -6 12 10 16 11 58 2 58 -4 0 -7 5 -5 11 3
14 -40 31 -48 19z"/>
<path d="M5052 4229 c-1 -17 1 -28 6 -25 5 3 9 -1 9 -9 0 -8 -4 -12 -9 -9 -12
8 -5 -89 7 -98 6 -5 5 -8 -2 -8 -7 0 -13 -5 -13 -11 0 -5 6 -7 13 -3 10 6 10
4 0 -7 -7 -7 -13 -17 -13 -22 0 -4 6 -5 13 -1 9 6 9 4 1 -7 -13 -17 -13 -58 0
-78 6 -10 6 -12 -2 -7 -7 4 -12 2 -12 -3 0 -6 5 -11 11 -11 5 0 7 -6 3 -12 -6
-10 -5 -10 8 -1 8 7 18 10 21 6 4 -3 7 -1 7 6 0 7 5 9 13 5 9 -6 9 -5 -1 8 -7
9 -10 27 -6 47 4 21 3 31 -5 31 -7 0 -9 5 -6 10 4 6 11 8 16 5 5 -4 5 3 0 17
-6 15 -5 31 1 42 8 14 7 17 -1 12 -7 -5 -10 1 -9 17 1 13 8 24 15 24 10 0 10
-4 1 -14 -9 -11 -7 -12 8 -7 10 4 16 4 12 0 -7 -9 13 -36 22 -31 3 2 7 -6 7
-18 1 -12 7 -23 13 -25 5 -2 10 -8 10 -14 0 -15 27 -38 36 -30 5 4 2 -2 -6
-13 -8 -11 -11 -17 -6 -13 10 8 47 -23 40 -34 -3 -4 2 -15 10 -24 12 -12 16
-12 16 -2 0 10 3 9 10 -2 8 -13 11 -11 16 7 4 13 10 21 14 18 10 -6 8 15 -3
33 -5 7 -4 12 2 12 19 0 12 20 -6 21 -15 0 -15 2 2 9 13 6 15 9 5 9 -13 1 -13
2 0 11 13 9 13 10 0 10 -13 0 -13 1 0 10 11 7 11 10 2 10 -8 0 -10 5 -6 12 12
19 12 48 0 48 -6 0 -4 5 4 10 8 5 10 10 4 10 -6 0 -11 7 -11 15 0 8 4 12 9 9
12 -8 10 10 -4 24 -9 9 -9 12 0 12 7 0 12 5 12 11 0 5 -5 7 -12 3 -7 -5 -9 -2
-6 8 5 11 -1 14 -23 14 -22 0 -26 -2 -17 -13 8 -10 6 -13 -8 -13 -16 0 -17 -2
-4 -10 8 -5 11 -10 7 -10 -4 0 -3 -10 4 -21 6 -12 7 -19 1 -15 -5 3 -13 -1
-16 -10 -4 -9 -2 -12 5 -8 8 4 9 -10 6 -45 -4 -35 -2 -49 5 -45 7 5 8 2 3 -6
-5 -9 -14 -4 -31 16 -12 16 -30 37 -38 47 -9 9 -11 17 -6 17 6 0 10 5 10 11 0
5 -4 8 -8 5 -13 -8 -54 54 -54 81 0 14 -3 21 -7 16 -3 -6 -14 -10 -23 -10 -14
0 -15 3 -6 14 9 11 7 12 -14 4 -15 -6 -29 -6 -35 0 -5 5 -10 -3 -11 -22z"/>
<path d="M5795 4241 c2 -12 0 -21 -5 -21 -5 0 -7 -7 -4 -15 4 -8 11 -12 18 -8
6 4 5 -1 -3 -10 -7 -9 -11 -26 -8 -37 3 -11 0 -20 -6 -20 -7 0 -3 -7 7 -15 11
-8 14 -15 8 -15 -8 0 -12 -12 -10 -33 1 -18 -1 -38 -5 -44 -4 -6 -3 -14 1 -17
5 -3 8 -17 7 -31 -2 -14 2 -25 8 -25 7 0 6 -4 -3 -10 -8 -5 -12 -12 -8 -15 10
-10 58 -13 52 -4 -3 5 3 9 13 9 10 0 14 4 8 8 -15 10 -19 46 -5 37 9 -6 9 -2
1 12 -6 11 -7 23 -4 27 10 10 11 46 1 52 -4 3 -8 10 -8 15 0 6 4 8 8 5 5 -3 9
1 9 9 0 8 -4 12 -9 9 -13 -8 -6 29 7 38 6 5 5 8 -3 8 -8 0 -10 5 -5 13 11 17
12 68 2 61 -8 -4 -13 8 -11 27 1 3 -6 6 -14 6 -7 0 -14 -5 -14 -10 0 -5 -7 -4
-15 3 -12 10 -14 8 -10 -9z"/>
<path d="M5933 4249 c-13 -5 -23 -13 -23 -19 0 -6 6 -8 13 -4 9 6 9 4 2 -7
-13 -16 -13 -69 0 -88 5 -10 4 -12 -3 -7 -8 5 -11 0 -8 -16 2 -13 -2 -29 -8
-37 -8 -11 -8 -13 1 -8 6 4 14 3 18 -3 3 -5 2 -10 -2 -10 -5 0 -9 -13 -9 -30
-1 -16 2 -28 6 -25 10 6 7 -21 -3 -31 -13 -13 -7 -33 12 -43 14 -8 23 -6 37
11 11 12 13 18 7 14 -7 -4 -13 -3 -13 3 0 5 6 12 13 14 10 4 10 6 0 6 -7 1
-13 6 -13 12 0 5 4 8 9 5 4 -3 6 6 3 19 -2 14 -8 23 -12 20 -5 -3 -6 4 -3 15
3 11 10 20 16 20 5 0 2 9 -8 20 -18 20 -18 21 1 14 16 -6 17 -5 7 7 -16 17
-17 33 -1 23 8 -5 9 -1 5 12 -7 18 -6 18 6 2 8 -10 17 -15 20 -11 4 3 7 -5 7
-19 0 -26 22 -53 33 -41 4 3 7 1 7 -5 0 -7 -6 -12 -12 -12 -7 0 -5 -5 5 -11 9
-6 15 -15 11 -20 -3 -5 0 -8 8 -7 7 2 12 -5 12 -14 -1 -10 1 -16 5 -14 4 3 13
-9 20 -25 10 -23 16 -27 26 -19 11 9 12 7 8 -9 -7 -27 9 -27 32 -1 20 22 28
60 12 60 -5 0 -4 7 3 15 10 12 10 15 0 15 -10 0 -10 3 0 15 9 10 9 15 1 15 -6
0 -11 5 -11 11 0 5 6 7 13 3 9 -6 9 -5 0 7 -10 12 -10 18 -1 27 9 9 9 12 0 12
-10 0 -10 5 -1 21 8 15 8 19 0 15 -6 -4 -11 -3 -11 3 0 5 6 12 13 14 9 4 9 6
-1 6 -8 1 -10 6 -5 14 4 6 8 25 9 41 1 16 -1 23 -6 16 -5 -8 -9 -7 -13 5 -5
13 -11 14 -27 5 -11 -6 -20 -15 -20 -21 0 -6 5 -7 12 -3 7 4 8 3 4 -4 -11 -18
-14 -92 -5 -98 5 -2 4 -15 -1 -28 -6 -16 -5 -28 3 -36 9 -10 9 -11 0 -6 -6 3
-14 0 -16 -6 -3 -8 -6 -6 -6 5 -1 9 -5 17 -10 17 -8 0 -24 37 -22 53 1 4 -6 7
-15 7 -10 0 -14 5 -10 16 4 10 2 13 -6 8 -8 -5 -9 -2 -5 9 4 10 2 16 -6 14 -7
-1 -11 4 -9 11 1 6 -2 12 -8 12 -5 0 -10 6 -10 13 0 21 -52 46 -77 36z"/>
<path d="M6250 4250 c-8 -5 -11 -10 -6 -10 5 0 3 -6 -3 -14 -9 -11 -9 -15 1
-19 8 -3 5 -6 -7 -7 -18 -1 -19 -1 -2 -11 13 -8 15 -14 7 -29 -13 -25 -13 -33
3 -24 9 6 9 5 0 -7 -10 -12 -10 -18 -1 -27 9 -9 9 -12 -1 -12 -10 0 -11 -3 -2
-14 9 -11 9 -16 0 -21 -8 -6 -7 -10 2 -16 8 -5 9 -9 3 -9 -6 0 -11 -7 -11 -15
0 -8 4 -12 9 -9 4 3 8 1 8 -5 0 -5 -6 -12 -12 -14 -10 -4 -9 -6 1 -6 11 -1 11
-4 1 -16 -10 -12 -10 -15 1 -15 11 0 11 -2 -1 -10 -13 -8 -12 -10 3 -10 9 0
17 -4 17 -8 0 -7 34 -8 50 -2 3 1 10 1 15 0 30 -7 53 -5 78 7 15 7 27 10 27 6
0 -5 18 11 39 35 38 42 39 45 39 118 0 41 -5 74 -10 74 -5 0 -6 5 -3 10 3 6
-1 13 -10 16 -13 6 -14 8 -3 15 9 6 7 9 -8 9 -11 0 -28 8 -38 19 -9 10 -27 17
-40 16 -13 -2 -29 1 -37 5 -8 5 -18 2 -27 -8 -13 -16 -13 -16 -8 0 3 12 0 16
-15 13 -10 -2 -24 -7 -31 -11 -7 -4 -8 -3 -4 4 9 14 -4 15 -24 2z m98 -42 c-4
-15 24 -18 34 -3 5 6 8 5 8 -3 0 -7 5 -10 10 -7 6 3 10 -1 10 -9 0 -9 5 -16
10 -16 6 0 10 -9 10 -20 0 -11 5 -20 10 -20 6 0 10 -7 10 -15 0 -8 -5 -15 -12
-15 -6 0 -3 -7 8 -16 10 -8 14 -13 8 -10 -7 3 -14 -3 -17 -14 -3 -11 -1 -18 4
-14 5 3 6 -2 3 -10 -3 -9 -14 -16 -23 -17 -12 0 -11 -2 4 -9 18 -7 18 -8 -7
-15 -16 -4 -26 -11 -23 -15 8 -12 -53 -18 -66 -6 -9 8 -10 8 -5 -1 4 -7 2 -13
-3 -13 -11 0 -15 13 -12 38 1 6 -3 12 -9 12 -6 0 -8 5 -3 13 12 19 12 37 1 37
-7 0 -6 5 1 14 8 10 9 16 1 21 -6 3 -8 10 -5 15 3 4 6 27 7 50 1 22 6 44 11
47 6 3 7 1 3 -5 -4 -7 -3 -12 2 -12 6 0 12 7 16 15 6 18 17 20 14 3z"/>
<path d="M6170 3919 c0 -5 5 -7 10 -4 6 3 10 8 10 11 0 2 -4 4 -10 4 -5 0 -10
-5 -10 -11z"/>
<path d="M3232 3808 c-14 -14 -62 -20 -62 -7 0 6 -6 7 -12 2 -20 -12 -328 -10
-328 2 0 5 -4 4 -9 -3 -4 -8 -11 -13 -15 -13 -23 3 -36 0 -31 -9 4 -6 -1 -7
-11 -3 -12 4 -15 2 -12 -8 3 -8 -2 -19 -11 -26 -11 -8 -12 -12 -3 -13 6 0 12
-5 12 -11 0 -5 -4 -8 -8 -5 -5 3 -9 -1 -9 -9 0 -8 4 -12 9 -9 11 7 10 -3 -3
-28 -8 -15 -8 -19 0 -14 6 4 11 2 11 -4 0 -6 -5 -21 -11 -32 -8 -15 -8 -19 0
-14 13 9 14 -4 2 -23 -6 -9 -4 -22 6 -37 8 -13 15 -27 16 -31 1 -4 16 -8 32
-8 17 0 35 -3 42 -8 6 -4 14 -3 17 1 6 11 36 9 55 -3 9 -5 12 -4 8 2 -4 6 7
10 25 11 24 1 28 -2 18 -8 -9 -6 -10 -10 -3 -10 6 0 14 4 17 8 6 11 36 9 55
-3 10 -5 12 -4 7 3 -10 16 7 15 23 0 11 -10 13 -10 7 0 -9 15 20 17 30 1 4 -8
9 -7 14 2 7 10 12 10 26 -2 16 -12 17 -12 9 1 -8 13 -7 13 8 1 9 -7 17 -9 17
-4 0 5 9 9 20 10 13 1 18 -2 13 -10 -5 -9 -3 -9 8 -2 17 12 39 13 58 1 9 -6
12 -5 8 1 -4 6 6 10 23 11 16 0 33 -4 36 -10 4 -7 9 -6 14 2 5 8 13 9 21 4 18
-11 49 -13 43 -2 -3 4 -1 8 5 8 5 0 13 -5 16 -10 5 -8 11 -8 19 -1 7 6 16 8
19 4 4 -3 7 -1 7 6 0 7 4 10 9 7 5 -3 11 3 14 15 3 12 12 19 23 17 13 -2 20 6
26 32 4 19 6 40 3 46 -2 7 4 10 16 7 10 -3 16 -9 13 -14 -3 -5 2 -6 10 -3 14
6 19 -4 15 -32 0 -4 5 -11 13 -15 10 -7 10 -9 1 -9 -7 0 -13 -5 -13 -11 0 -5
5 -7 10 -4 15 9 12 -2 -6 -19 -14 -15 -14 -16 1 -16 14 0 13 -4 -6 -21 -13
-11 -19 -18 -14 -15 6 2 11 -3 11 -13 0 -12 -6 -17 -18 -13 -19 5 -51 -21 -40
-33 4 -4 1 -6 -7 -3 -8 2 -25 -6 -39 -19 -13 -12 -29 -20 -35 -16 -7 4 -8 0
-3 -12 5 -15 4 -16 -9 -5 -13 11 -16 11 -13 -1 2 -8 -3 -13 -11 -11 -7 2 -21
-4 -31 -13 -9 -8 -20 -12 -25 -8 -4 5 -5 3 -2 -3 8 -13 -19 -27 -34 -19 -5 4
-6 -2 -2 -12 3 -10 3 -15 -2 -11 -4 4 -14 0 -22 -8 -8 -8 -19 -11 -25 -8 -7 5
-8 2 -3 -6 6 -10 4 -12 -8 -7 -11 4 -14 2 -11 -7 3 -7 -2 -16 -11 -20 -11 -4
-14 -2 -10 7 4 6 0 4 -8 -5 -8 -10 -17 -15 -20 -11 -4 3 -7 -1 -7 -10 0 -10
-5 -17 -11 -17 -5 0 -7 5 -3 12 4 7 3 8 -4 4 -7 -4 -12 -15 -12 -24 0 -12 -3
-13 -8 -5 -5 8 -13 2 -24 -18 -10 -17 -12 -27 -5 -23 8 5 7 2 -2 -9 -10 -13
-10 -17 -1 -17 9 0 10 -3 1 -13 -8 -10 -7 -17 2 -27 9 -10 9 -11 0 -6 -7 4
-13 2 -13 -3 0 -6 6 -11 13 -11 9 0 8 -3 -2 -9 -8 -5 -10 -14 -6 -22 5 -8 5
-11 0 -7 -14 13 -45 -11 -38 -29 5 -11 3 -14 -6 -8 -10 6 -11 3 -2 -13 8 -15
8 -22 -2 -25 -9 -4 -9 -6 1 -6 10 -1 10 -6 1 -22 -6 -12 -7 -19 -1 -15 5 3 12
-3 15 -15 5 -17 3 -18 -9 -8 -13 10 -13 8 -4 -15 12 -33 13 -39 1 -32 -5 3 -6
-8 -2 -27 4 -17 5 -43 1 -57 -4 -14 -1 -38 6 -55 10 -24 13 -26 14 -10 l1 20
9 -20 c5 -11 9 -15 9 -9 1 5 12 10 25 10 14 0 23 -3 21 -7 -3 -3 7 -4 20 -1
14 2 31 16 39 33 8 16 10 27 5 24 -13 -9 -11 9 3 23 10 10 10 15 -2 22 -13 9
-13 10 0 10 13 0 13 1 0 10 -8 5 -11 10 -6 10 5 0 2 8 -5 17 -12 15 -12 16 3
10 12 -4 15 -2 11 8 -3 8 -8 13 -12 11 -3 -2 -6 7 -6 20 0 17 4 23 14 19 12
-5 12 -3 1 11 -11 13 -11 17 -1 24 11 6 11 8 0 12 -12 4 -12 7 0 21 10 13 10
17 1 17 -7 0 -10 7 -7 14 4 11 1 13 -11 9 -9 -3 -14 -3 -10 2 4 4 -1 15 -10
24 -10 9 -11 12 -3 6 12 -8 12 -7 2 12 -6 13 -9 34 -7 48 3 14 1 23 -5 20 -5
-4 -9 -3 -9 1 0 11 48 52 54 46 3 -3 6 1 6 9 0 11 2 11 10 -1 8 -12 10 -11 10
8 0 12 3 21 8 21 20 -3 32 2 32 15 0 21 28 28 33 8 4 -16 5 -15 6 1 0 9 8 17
17 17 14 0 14 3 4 15 -11 13 -10 14 5 9 14 -6 16 -4 10 7 -8 12 -6 12 8 0 10
-8 20 -11 24 -7 3 3 1 6 -6 6 -7 0 -9 5 -6 10 4 6 11 8 16 5 5 -4 9 -1 9 5 0
6 5 8 12 4 8 -5 9 -2 4 11 -5 15 -4 16 8 6 11 -9 16 -9 22 0 5 8 3 9 -6 4 -9
-5 -11 -4 -6 3 4 7 14 12 22 12 8 0 14 4 14 10 0 5 7 7 15 3 10 -3 15 0 13 8
-2 9 4 13 15 11 15 -3 22 9 18 31 -1 5 3 6 9 2 6 -3 7 -11 4 -17 -5 -7 -2 -8
5 -4 7 5 10 15 6 23 -4 12 -2 13 8 5 13 -11 39 -2 39 14 0 5 4 8 9 6 5 -1 8 1
8 5 -4 25 2 35 19 28 13 -5 14 -4 5 6 -8 8 -9 18 -2 31 7 13 6 18 -2 18 -8 0
-8 4 1 15 7 9 8 15 2 15 -5 0 -8 9 -5 20 3 11 10 17 17 13 7 -4 6 -1 -1 9 -7
8 -10 18 -6 21 3 4 2 7 -4 7 -6 0 -9 11 -8 25 2 16 -2 25 -11 25 -8 0 -14 6
-14 14 0 8 -5 18 -12 22 -6 4 -8 3 -4 -4 4 -6 -1 -10 -13 -9 -11 0 -17 5 -15
9 3 4 1 8 -5 8 -5 0 -11 -6 -14 -12 -2 -7 -8 4 -12 24 -4 21 -11 36 -15 33 -4
-3 -11 2 -14 11 -3 9 -11 12 -18 8 -7 -5 -9 -2 -6 8 4 8 -2 20 -14 27 -16 10
-18 10 -13 0 6 -8 4 -10 -5 -4 -21 13 -60 14 -60 2 0 -8 -3 -9 -8 -1 -4 6 -39
10 -82 10 -54 -1 -74 3 -72 12 3 15 -1 15 -16 0z"/>
<path d="M3945 3744 c-10 -15 -12 -23 -4 -19 9 6 11 3 6 -8 -4 -11 -1 -17 8
-17 8 0 15 -5 15 -11 0 -5 5 -7 10 -4 16 10 12 25 -7 25 -16 1 -16 2 2 17 18
14 19 15 1 9 -15 -5 -17 -4 -7 8 7 8 8 17 3 20 -6 3 -18 -6 -27 -20z"/>
<path d="M3990 3763 c0 -5 5 -15 10 -23 8 -12 10 -11 10 8 0 12 -4 22 -10 22
-5 0 -10 -3 -10 -7z"/>
<path d="M4123 3757 c-10 -17 -11 -67 -1 -67 6 0 5 -7 -2 -15 -10 -12 -10 -15
1 -15 9 0 10 -3 4 -8 -13 -9 -18 -35 -5 -27 5 3 10 2 10 -2 0 -5 18 -8 39 -8
22 0 34 3 28 7 -7 4 -24 8 -39 8 -36 0 -35 12 3 44 29 25 27 29 -13 29 -10 0
-18 6 -18 13 0 8 5 14 11 14 8 0 7 5 -1 15 -11 14 -10 14 12 6 18 -7 25 -6 25
3 0 14 -46 16 -54 3z m47 -62 c0 -1 -10 -10 -22 -21 -14 -12 -18 -13 -10 -3 6
9 10 18 7 21 -3 2 2 5 10 5 8 0 15 -1 15 -2z"/>
<path d="M4195 3761 c-3 -5 -2 -12 3 -15 5 -3 9 1 9 9 0 17 -3 19 -12 6z"/>
<path d="M4299 3764 c-6 -50 -5 -73 2 -68 5 3 9 -2 9 -10 0 -9 -4 -16 -8 -16
-5 0 -9 -7 -9 -15 0 -8 5 -11 10 -8 6 4 8 0 4 -10 -3 -9 -2 -19 3 -22 4 -3 7
6 5 20 -1 14 1 25 6 25 5 0 5 8 2 17 -6 14 -3 14 19 -3 17 -13 22 -21 14 -26
-7 -5 -4 -8 7 -8 10 0 15 -4 12 -10 -3 -5 -2 -10 4 -10 17 0 8 40 -11 46 -10
3 -16 10 -12 15 3 5 10 6 16 3 6 -4 8 -2 4 4 -3 6 -2 13 3 16 11 7 2 46 -11
46 -5 0 -6 6 -2 13 5 7 1 7 -10 -2 -15 -13 -19 -13 -28 0 -8 11 -9 10 -4 -6 6
-20 6 -20 -9 -1 -8 11 -15 16 -16 10z m71 -43 c0 -30 -24 -44 -42 -23 -23 26
-33 46 -20 38 7 -4 20 -3 29 3 22 12 33 5 33 -18z"/>
<path d="M4825 3760 c-4 -6 -10 -8 -15 -5 -5 3 -12 0 -16 -6 -5 -8 -3 -9 6 -4
10 6 12 4 7 -8 -10 -27 9 -20 21 8 11 25 9 35 -3 15z"/>
<path d="M4846 3753 c-6 -14 -5 -15 5 -6 7 7 10 15 7 18 -3 3 -9 -2 -12 -12z"/>
<path d="M4996 3758 c3 -4 1 -8 -5 -8 -6 0 -7 -7 -4 -17 5 -12 3 -14 -7 -8 -9
5 -11 4 -6 -3 13 -21 38 -14 31 8 -4 11 -2 20 4 20 6 0 11 4 11 8 0 5 -7 9
-15 9 -8 0 -12 -4 -9 -9z"/>
<path d="M5175 3756 l-30 -13 38 2 c21 1 41 6 45 10 4 5 2 5 -5 2 -6 -4 -13
-3 -15 2 -2 5 -16 4 -33 -3z"/>
<path d="M4476 3744 c-8 -20 0 -32 14 -18 5 5 5 15 1 22 -6 11 -10 10 -15 -4z"/>
<path d="M4553 3745 c0 -8 6 -16 14 -19 11 -4 11 -1 3 14 -13 24 -17 25 -17 5z"/>
<path d="M4877 3753 c-10 -9 -9 -23 1 -23 5 0 9 7 9 15 0 17 -1 18 -10 8z"/>
<path d="M5033 3745 c0 -8 4 -12 9 -9 4 3 8 9 8 15 0 5 -4 9 -8 9 -5 0 -9 -7
-9 -15z"/>
<path d="M4671 3736 c-7 -8 -8 -17 -3 -20 5 -3 8 -18 6 -33 -2 -16 -1 -20 2
-10 3 10 10 14 17 10 7 -4 4 6 -7 21 -15 24 -16 28 -3 23 11 -4 14 -2 10 9 -6
17 -8 17 -22 0z"/>
<path d="M4783 3718 c4 -11 2 -18 -6 -18 -8 0 -6 -4 3 -10 8 -5 11 -10 6 -10
-5 0 -3 -6 3 -14 9 -11 9 -15 -1 -19 -9 -4 -8 -6 3 -6 9 -1 19 6 23 14 3 9 -1
15 -11 15 -12 0 -13 3 -3 15 10 12 8 18 -6 32 -17 17 -17 17 -11 1z"/>
<path d="M5153 3715 c0 -11 4 -12 14 -4 7 6 13 13 13 15 0 2 -6 4 -13 4 -8 0
-14 -7 -14 -15z"/>
<path d="M4489 3697 c6 -8 7 -18 3 -22 -4 -5 -1 -5 6 -1 8 5 12 -1 13 -21 1
-15 0 -32 -1 -38 -1 -5 2 -6 7 -2 11 11 12 67 1 67 -4 0 -8 7 -8 15 0 8 -7 15
-16 15 -13 0 -14 -3 -5 -13z"/>
<path d="M4524 3699 c-5 -8 -3 -10 5 -4 9 5 11 -1 8 -24 -3 -17 -2 -33 2 -35
9 -6 8 60 0 69 -4 3 -10 1 -15 -6z"/>
<path d="M5170 3701 c0 -6 9 -9 20 -8 11 1 20 5 20 9 0 4 -9 8 -20 8 -11 0
-20 -4 -20 -9z"/>
<path d="M4980 3685 c0 -8 7 -15 15 -15 8 0 15 7 15 15 0 8 -7 15 -15 15 -8 0
-15 -7 -15 -15z"/>
<path d="M5020 3695 c0 -2 6 -8 13 -14 10 -8 14 -7 14 2 0 8 -6 14 -14 14 -7
0 -13 -1 -13 -2z"/>
<path d="M3990 3677 c0 -7 5 -18 11 -24 8 -8 7 -13 -1 -18 -7 -4 -16 -1 -21 6
-6 10 -9 11 -9 2 0 -7 -6 -13 -14 -13 -8 0 -18 -4 -21 -10 -4 -7 3 -7 19 0 14
5 26 6 26 1 0 -5 11 -4 24 2 24 12 33 52 9 43 -7 -3 -10 1 -6 10 3 7 0 14 -6
14 -6 0 -11 -6 -11 -13z"/>
<path d="M5184 3678 c-3 -5 -2 -8 3 -7 4 1 17 1 28 0 20 -2 20 -2 -1 -19 -17
-14 -18 -20 -8 -29 18 -18 46 27 30 48 -12 17 -44 21 -52 7z m56 -22 c0 -2 -8
-10 -17 -17 -16 -13 -17 -12 -4 4 13 16 21 21 21 13z"/>
<path d="M4976 3651 c-4 -5 3 -7 14 -4 23 6 26 13 6 13 -8 0 -17 -4 -20 -9z"/>
<path d="M4665 3641 c-3 -5 0 -13 6 -17 8 -5 9 -3 4 6 -6 10 -4 12 9 7 10 -4
15 -3 11 3 -8 13 -22 13 -30 1z"/>
<path d="M4814 3628 c-4 -7 -3 -8 4 -4 7 4 12 3 12 -2 0 -4 14 -8 30 -8 32 0
40 10 14 20 -8 3 -12 2 -9 -4 8 -13 -1 -13 -25 0 -13 7 -21 7 -26 -2z"/>
<path d="M4990 3630 c0 -5 3 -10 8 -11 4 0 14 -2 23 -4 9 -1 23 1 30 6 10 7 5
8 -13 5 -16 -3 -28 0 -28 5 0 5 -4 9 -10 9 -5 0 -10 -4 -10 -10z"/>
<path d="M5150 3626 c0 -2 9 -6 20 -9 11 -3 18 -1 14 4 -5 9 -34 13 -34 5z"/>
<path d="M2206 3421 c-3 -5 1 -11 9 -14 9 -4 12 -1 8 9 -6 16 -10 17 -17 5z"/>
<path d="M2590 3354 c0 -14 -3 -14 -16 -4 -8 8 -14 9 -13 4 3 -18 -1 -34 -8
-33 -22 4 -25 -3 -7 -16 14 -11 15 -14 3 -9 -10 3 -20 0 -25 -7 -4 -7 -3 -10
4 -5 6 3 9 -1 7 -11 -2 -10 -4 -26 -4 -36 -1 -11 -6 -15 -13 -11 -7 4 -8 3 -4
-5 6 -9 11 -9 24 1 13 11 15 10 10 -9 -3 -12 -3 -22 1 -21 22 3 41 -4 36 -12
-7 -12 65 26 80 42 7 8 5 8 -5 3 -12 -7 -13 -6 -3 6 13 16 14 59 1 59 -4 0 -8
7 -8 16 0 18 -23 44 -40 44 -6 0 -8 5 -5 10 3 6 1 10 -4 10 -6 0 -11 -7 -11
-16z"/>
</g>
</svg>
